<svg id="Laag_1" data-name="Laag 1" xmlns="http://www.w3.org/2000/svg" width="280" height="200" viewBox="0 0 280 200"><defs><style>.cls-1,.cls-13{fill:#01689b;}.cls-10,.cls-2,.cls-4,.cls-5,.cls-6,.cls-7,.cls-8,.cls-9{fill:#fff;}.cls-3{fill:#f3f3f3;}.cls-4{opacity:0.4;}.cls-10,.cls-4,.cls-5,.cls-6,.cls-7,.cls-8,.cls-9{isolation:isolate;}.cls-5{opacity:0.6;}.cls-6{opacity:0.8;}.cls-7{opacity:0.9;}.cls-8{opacity:0.3;}.cls-9{opacity:0.5;}.cls-10{opacity:0.7;}.cls-11{fill:none;}.cls-11,.cls-13{stroke:#01689b;stroke-miterlimit:10;stroke-width:2px;}.cls-12{fill:#02689b;}</style></defs><title>media_player_controls</title><g id="Laag_1-2" data-name="Laag 1-2"><path class="cls-1" d="M22.69,19l-9.44,6.8a1.79,1.79,0,0,1-.78.22,1.15,1.15,0,0,1-.55-.11,1.2,1.2,0,0,1-.67-1.07V11.26a1.19,1.19,0,0,1,.67-1.07,1.48,1.48,0,0,1,1.33,0L22.69,17a1.15,1.15,0,0,1,.39,1.58h0a1.06,1.06,0,0,1-.37.36Z"/><g id="pause"><rect class="cls-1" x="11.25" y="30.01" width="4" height="16"/><rect class="cls-1" x="19.92" y="30.01" width="4" height="16"/></g><path class="cls-1" d="M76.75,17.06a4.56,4.56,0,0,0-2.17-4l-.83,1.5a2.52,2.52,0,0,1,1.5,2.5,2.61,2.61,0,0,1-1.5,2.5l.83,1.5A4.67,4.67,0,0,0,76.75,17.06Z"/><path class="cls-1" d="M76.25,10l-1,1.62A6.06,6.06,0,0,1,78,19.5a5.75,5.75,0,0,1-2.74,2.89l1,1.62a8.15,8.15,0,0,0,3.09-10.74A7.66,7.66,0,0,0,76.25,10Z"/><path class="cls-1" d="M71,10.17l-4.56,3.15H64c-2.17,0-2.79,1.74-2.79,3.69S61.87,20.7,64,20.7h2.49l4.55,3.15a.72.72,0,0,0,1-.13h0a.73.73,0,0,0,.17-.51V10.72a.78.78,0,0,0-.85-.7h0A.79.79,0,0,0,71,10.17Z"/><path class="cls-1" d="M71,30.14l-4.56,3.14H64c-2.17,0-2.79,1.73-2.79,3.73s.62,3.71,2.79,3.71h2.49l4.55,3.16a.69.69,0,0,0,1-.08l0,0h0a.76.76,0,0,0,.17-.56V30.79a.82.82,0,0,0-.89-.77h0A.89.89,0,0,0,71,30.14Z"/><path class="cls-2" d="M79.73,67.62a7.35,7.35,0,0,0-6.09-6.09C64.51,60,49.25,60,46.25,60S28,60,18.86,61.53a7.35,7.35,0,0,0-6.09,6.09C11.25,76.75,11.25,92,11.25,95s0,18.26,1.52,27.39a7.36,7.36,0,0,0,6.09,6.09C28,130,43.25,130,46.25,130s18.26,0,27.39-1.52a7.36,7.36,0,0,0,6.09-6.09C81.25,113.27,81.25,98,81.25,95,81.25,85.88,81.25,76.75,79.73,67.62ZM62,97.44l-22.92,17a3.15,3.15,0,0,1-1.8.57,3.85,3.85,0,0,1-1.42-.31A3.18,3.18,0,0,1,34.08,112V78a3,3,0,0,1,1.72-2.74,3.15,3.15,0,0,1,3.25.3L62,92.57A3,3,0,0,1,63.19,95,3,3,0,0,1,62,97.44Z"/><path class="cls-3" d="M159.73,67.62a7.35,7.35,0,0,0-6.09-6.09C144.51,60,129.25,60,126.25,60S108,60,98.86,61.53a7.35,7.35,0,0,0-6.09,6.09C91.25,76.75,91.25,92,91.25,95s0,18.26,1.52,27.39a7.36,7.36,0,0,0,6.09,6.09C108,130,123.25,130,126.25,130s18.26,0,27.39-1.52a7.36,7.36,0,0,0,6.09-6.09c1.52-9.13,1.52-24.39,1.52-27.39C161.25,85.88,161.25,76.75,159.73,67.62ZM142,97.44l-22.92,17a3.15,3.15,0,0,1-1.8.57,3.85,3.85,0,0,1-1.42-.31,3.17,3.17,0,0,1-1.72-2.74V78a3,3,0,0,1,1.72-2.74,3.15,3.15,0,0,1,3.25.3l22.92,17A3,3,0,0,1,143.19,95,3.1,3.1,0,0,1,142,97.44Z"/><circle class="cls-2" cx="220.05" cy="18.11" r="8.1"/><circle class="cls-4" cx="252.05" cy="50.01" r="5"/><circle class="cls-5" cx="220.05" cy="81.91" r="6"/><circle class="cls-6" cx="188.25" cy="50.01" r="7"/><circle class="cls-7" cx="196.35" cy="27.31" r="7.5"/><circle class="cls-8" cx="244.45" cy="27.11" r="4.5"/><circle class="cls-9" cx="243.95" cy="73.81" r="5.5"/><circle class="cls-10" cx="196.35" cy="73.81" r="6.5"/><rect class="cls-1" x="31.25" y="10.01" width="7" height="2"/><rect class="cls-1" x="42.25" y="10.01" width="7" height="2"/><rect class="cls-1" x="31.25" y="26.01" width="7" height="2"/><rect class="cls-1" x="42.25" y="26.01" width="7" height="2"/><rect class="cls-1" x="31.25" y="21.01" width="2" height="7"/><rect class="cls-1" x="31.25" y="10.01" width="2" height="7"/><rect class="cls-1" x="47.25" y="21.01" width="2" height="7"/><rect class="cls-1" x="47.25" y="10.01" width="2" height="7"/><rect class="cls-1" x="42.25" y="41.01" width="7" height="2"/><rect class="cls-1" x="31.25" y="41.01" width="7" height="2"/><rect class="cls-1" x="42.25" y="35.01" width="7" height="2"/><rect class="cls-1" x="31.25" y="35.01" width="7" height="2"/><rect class="cls-1" x="42.25" y="30.01" width="2" height="7"/><rect class="cls-1" x="42.25" y="41.01" width="2" height="7"/><rect class="cls-1" x="36.25" y="30.01" width="2" height="7"/><rect class="cls-1" x="36.25" y="41.01" width="2" height="7"/><rect class="cls-11" x="92.25" y="10.01" width="16" height="16"/><rect class="cls-11" x="120.25" y="10.01" width="16" height="16"/><path class="cls-12" d="M126.25,14.4l2.1,7.22H126.7l-.4-1.55h-2.44l-.4,1.55H122l2.11-7.22ZM126,18.93l-.89-3.34H125l-.9,3.34Z"/><path class="cls-12" d="M130.66,21.62h-2V14.4h2.1a4.06,4.06,0,0,1,2.84.9,3.21,3.21,0,0,1,1,2.5,3.64,3.64,0,0,1-1,2.89A4.17,4.17,0,0,1,130.66,21.62Zm-.6-6V20.5h.67a2.42,2.42,0,0,0,1.7-.6,2.66,2.66,0,0,0,.64-2,2.18,2.18,0,0,0-.66-1.71,2.56,2.56,0,0,0-1.76-.59Z"/><rect class="cls-13" x="120.25" y="30.01" width="16" height="16"/><path class="cls-3" d="M126.34,34.32l2,7.38h-1.53l-.37-1.59h-2.27l-.37,1.59h-1.38l2-7.38ZM126.11,39l-.86-3.41h0L124.43,39Z"/><path class="cls-3" d="M130.76,41.7h-1.89V34.32h1.95a3.56,3.56,0,0,1,2.64.92,3.44,3.44,0,0,1,.91,2.56,4,4,0,0,1-1,3A3.67,3.67,0,0,1,130.76,41.7Zm-.51-6.19v5h.62a2.13,2.13,0,0,0,1.57-.62,2.83,2.83,0,0,0,.6-2,2.36,2.36,0,0,0-.61-1.74,2.21,2.21,0,0,0-1.64-.61Z"/><path class="cls-1" d="M100,20.27v1.17a7.15,7.15,0,0,1-.76.14,6.16,6.16,0,0,1-.84,0,3.78,3.78,0,0,1-2.53-.87,3.18,3.18,0,0,1-1-2.6,3.71,3.71,0,0,1,1.1-2.92,3.78,3.78,0,0,1,2.63-1c.27,0,.52,0,.73,0a7,7,0,0,1,.69.11l-.1,1.21a6,6,0,0,0-.69-.09c-.19,0-.41,0-.67,0a2.13,2.13,0,0,0-1.55.63,2.55,2.55,0,0,0-.64,1.9A2.31,2.31,0,0,0,97,19.83a2.17,2.17,0,0,0,1.47.59,5.75,5.75,0,0,0,.78,0A6.81,6.81,0,0,0,100,20.27Z"/><path class="cls-1" d="M106,20.27v1.17a7.15,7.15,0,0,1-.76.14,6.16,6.16,0,0,1-.84,0,3.78,3.78,0,0,1-2.53-.87,3.18,3.18,0,0,1-1-2.6,3.71,3.71,0,0,1,1.1-2.92,3.78,3.78,0,0,1,2.63-1c.27,0,.52,0,.73,0a7,7,0,0,1,.69.11l-.1,1.21a6,6,0,0,0-.69-.09c-.19,0-.41,0-.67,0a2.13,2.13,0,0,0-1.55.63,2.55,2.55,0,0,0-.64,1.9,2.31,2.31,0,0,0,.66,1.81,2.17,2.17,0,0,0,1.47.59,5.75,5.75,0,0,0,.78,0A6.81,6.81,0,0,0,106,20.27Z"/><rect class="cls-13" x="92" y="30" width="16" height="16"/><path class="cls-3" d="M99.75,40.27v1.16a7.63,7.63,0,0,1-.76.15q-.3,0-.84,0a3.82,3.82,0,0,1-2.53-.86,3.21,3.21,0,0,1-1-2.61,3.72,3.72,0,0,1,1.1-2.92,3.83,3.83,0,0,1,2.63-1c.27,0,.52,0,.73,0s.44.06.69.11l-.1,1.21A6,6,0,0,0,99,35.5l-.67,0a2.1,2.1,0,0,0-1.55.64A2.53,2.53,0,0,0,96.09,38a2.29,2.29,0,0,0,.66,1.81,2.17,2.17,0,0,0,1.47.59q.47,0,.78,0C99.21,40.36,99.46,40.32,99.75,40.27Z"/><path class="cls-3" d="M105.75,40.27v1.16a7.63,7.63,0,0,1-.76.15q-.3,0-.84,0a3.82,3.82,0,0,1-2.53-.86,3.21,3.21,0,0,1-1-2.61,3.72,3.72,0,0,1,1.1-2.92,3.83,3.83,0,0,1,2.63-1c.27,0,.52,0,.73,0s.44.06.69.11l-.1,1.21a6,6,0,0,0-.69-.09l-.67,0a2.1,2.1,0,0,0-1.55.64,2.53,2.53,0,0,0-.64,1.89,2.29,2.29,0,0,0,.66,1.81,2.17,2.17,0,0,0,1.47.59q.47,0,.78,0C105.21,40.36,105.46,40.32,105.75,40.27Z"/></g></svg>